<?xml version="1.0" standalone="no"?><!DOCTYPE svg PUBLIC "-//W3C//DTD SVG 1.1//EN" "http://www.w3.org/Graphics/SVG/1.1/DTD/svg11.dtd"><svg t="1704275656146" class="icon" viewBox="0 0 1024 1024" version="1.1" xmlns="http://www.w3.org/2000/svg" p-id="18379" xmlns:xlink="http://www.w3.org/1999/xlink" width="200" height="200"><path d="M703.968613 512.083693 320.031387 512.083693C302.370274 512.083693 288.036618 526.417349 288.036618 544.078462 288.036618 561.771569 302.370274 576.073231 320.031387 576.073231L703.968613 576.073231C721.629726 576.073231 735.963382 561.771569 735.963382 544.078462 735.963382 526.417349 721.629726 512.083693 703.968613 512.083693L703.968613 512.083693ZM703.968613 704.052306 320.031387 704.052306C302.370274 704.052306 288.036618 718.353968 288.036618 736.047075 288.036618 753.740182 302.370274 768.041844 320.031387 768.041844L703.968613 768.041844C721.629726 768.041844 735.963382 753.740182 735.963382 736.047075 735.963382 718.353968 721.629726 704.052306 703.968613 704.052306L703.968613 704.052306ZM735.963382 256.125542C700.641157 256.125542 671.973844 227.458229 671.973844 192.136004L671.973844 64.156929 863.942457 256.125542 735.963382 256.125542 735.963382 256.125542ZM863.942457 896.020919C863.942457 931.343144 835.275145 960.010457 799.95292 960.010457L224.04708 960.010457C188.724855 960.010457 160.057543 931.343144 160.057543 896.020919L160.057543 128.146467C160.057543 92.824242 188.724855 64.156929 224.04708 64.156929L607.088453 64.156929C606.512547 140.7844 607.984307 192.136004 607.984307 192.136004 607.984307 262.812449 665.286938 320.11508 735.963382 320.11508L863.942457 320.11508 863.942457 896.020919 863.942457 896.020919ZM671.973844 0.167391 671.973844 1.063245C667.878514 1.063245 650.793307-0.504499 607.984307 0.167391L224.04708 0.167391C153.370636 0.167391 96.068005 57.470022 96.068005 128.146467L96.068005 896.020919C96.068005 966.697364 153.370636 1023.999995 224.04708 1023.999995L799.95292 1023.999995C870.629364 1023.999995 927.931995 966.697364 927.931995 896.020919L927.931995 256.125542 671.973844 0.167391 671.973844 0.167391Z" p-id="18380"></path></svg>