<?xml version="1.0" standalone="no"?><!DOCTYPE svg PUBLIC "-//W3C//DTD SVG 1.1//EN" "http://www.w3.org/Graphics/SVG/1.1/DTD/svg11.dtd"><svg t="1704274929725" class="icon" viewBox="0 0 1024 1024" version="1.1" xmlns="http://www.w3.org/2000/svg" p-id="7566" xmlns:xlink="http://www.w3.org/1999/xlink" width="200" height="200"><path d="M848.937379 537.578518a38.363045 38.363045 0 0 0-38.387037 38.387037c0 1.495495 0.111962 2.879028 0.215927 4.262561h-0.215927V947.040246H76.934078V213.423982h400.92861c21.224833 0 38.387037-17.170202 38.387037-38.387037 0-21.224833-17.162204-38.387037-38.387037-38.387037H76.934078a76.72609 76.72609 0 0 0-76.774074 76.774074V947.040246c0 42.441668 34.332406 76.774074 76.774074 76.774074h733.616264c42.441668 0 76.774074-34.332406 76.774074-76.774074V580.228116h-0.20793c0.103965-1.383533 0.20793-2.767066 0.20793-4.262561 0-21.216835-17.162204-38.387037-38.387037-38.387037z" p-id="7567"></path><path d="M1001.101994 107.107885L916.546547 22.552438c-29.965881-29.965881-78.805388-29.749954-108.763271 0.215927l-423.536975 423.536975a34.100485 34.100485 0 0 0-7.25355 10.876327L270.572688 708.184906c-5.965985 14.075247-1.80739 28.262456 7.25355 37.427361 9.06094 9.172902 23.352114 13.331498 37.531326 7.357515l251.115201-106.308101c4.054631-1.703425 7.677407-4.158596 10.876327-7.25355l423.536975-423.536975c29.965881-29.957883 30.181808-78.797391 0.215927-108.763271zM528.837474 579.164475l-146.510525 62.059043 62.059043-146.510525L741.669602 197.429384l84.451481 84.451481L528.837474 579.164475z m417.666957-417.674955l-66.105677 66.113674-84.451481-84.451481 66.105677-66.113674 0.215927-0.20793 84.451481 84.451482-0.215927 0.207929z" p-id="7568"></path></svg>