<?xml version="1.0" standalone="no"?><!DOCTYPE svg PUBLIC "-//W3C//DTD SVG 1.1//EN" "http://www.w3.org/Graphics/SVG/1.1/DTD/svg11.dtd"><svg t="1704274047720" class="icon" viewBox="0 0 1024 1024" version="1.1" xmlns="http://www.w3.org/2000/svg" p-id="5208" xmlns:xlink="http://www.w3.org/1999/xlink" width="200" height="200"><path d="M869.56139 992.952238l-0.448112 0.256064-0.768192 0.32008c-16.004001 18.692673-38.473618 30.407602-63.11978 30.407602l-586.386597 0c-24.646162 0-47.115779-11.714929-63.631908-30.727682l0-0.256064-0.192048 0.256064C138.434609 974.003501 128.384096 947.180795 128.384096 918.437609L128.384096 105.562391c0-28.807202 10.050513-55.053763 26.566642-74.002501C171.722931 12.227057 194.128532 0 218.83871 0l399.587897 0c8.898225 0 17.732433 4.737184 23.941985 11.714929l243.452863 284.615154c6.72168 8.386097 9.794449 18.180545 9.794449 28.487122l0 0.576144 0 593.044261C895.615904 947.180795 885.565391 973.427357 869.56139 992.952238zM396.803201 518.913728C408.646162 510.527632 412.551138 491.642911 405.317329 478.391598c-6.977744-14.339585-23.045761-18.884721-34.888722-10.498625L202.130533 582.865716c-15.491873 11.522881-16.068017 39.113778 0 50.700675l168.234059 115.292823c11.842961 8.386097 27.910978 4.16104 34.888722-10.114529 7.233808-13.955489 3.328832-32.136034-8.514129-40.522131L265.634409 608.088022 396.803201 518.913728zM584.498125 386.08052C571.11878 380.127032 556.523131 387.808952 551.08177 402.852713l-130.592648 389.793448c-5.185296 14.659665 1.216304 32.136034 14.275569 38.089522C448.464116 837.009252 462.995749 829.327332 468.501125 813.963491l130.592648-390.113528C603.95899 409.190298 597.237309 392.354089 584.498125 386.08052zM614.265566 478.391598C606.967742 491.642911 610.616654 510.527632 622.779695 518.913728l131.168792 89.174294-131.168792 90.19855c-12.163041 8.386097-15.811953 26.566642-8.514129 40.522131 7.297824 14.339585 23.109777 18.564641 34.952738 10.114529l167.593898-115.292823c17.348337-11.586897 16.708177-39.177794 0-50.700675L649.218305 467.892973C637.375344 459.506877 621.563391 464.052013 614.265566 478.391598zM640.384096 126.87972l0 148.709177c0 11.650913 4.993248 22.917729 12.035009 30.663666L653.315329 307.468867c8.258065 8.322081 19.716929 13.379345 32.072018 13.379345l146.852713 0L640.384096 126.87972z"  p-id="5209"></path></svg>