<?xml version="1.0" standalone="no"?><!DOCTYPE svg PUBLIC "-//W3C//DTD SVG 1.1//EN" "http://www.w3.org/Graphics/SVG/1.1/DTD/svg11.dtd"><svg t="1704272470249" class="icon" viewBox="0 0 1024 1024" version="1.1" xmlns="http://www.w3.org/2000/svg" p-id="3343" xmlns:xlink="http://www.w3.org/1999/xlink" width="200" height="200"><path d="M907.177318 419.842067c13.413498 13.428847 13.402241 35.18843-0.025583 48.602951L516.460592 858.772888c-65.218374 65.162092-138.986471 99.936083-208.94173 99.936083-17.86488 0-35.479049-2.267647-52.638871-6.876618-68.939115-18.514679-121.448026-72.037686-140.463102-143.169747-23.684422-88.61013 8.241708-184.888917 87.585801-264.157285l435.365622-434.962439c70.683852-70.609151 169.075767-48.38294 225.76079 8.372691 77.085656 77.183893 55.888891 168.588673 3.576455 220.857107L427.63352 777.412882c-58.195424 58.137095-123.295094 53.864792-157.527756 19.59222-33.858132-33.902134-37.718043-98.602715 20.409842-156.678412L587.485205 343.639524c13.43908-13.416568 35.1915-13.402241 48.601928 0.024559 13.414521 13.430894 13.405311 35.195593-0.024559 48.609091L339.093998 688.960341c-25.928532 25.90295-29.841655 49.971112-20.357654 59.46023 9.838066 9.867742 34.332946 6.314823 60.3239-19.646456l439.066921-438.640202c44.282552-44.23548 25.722848-94.248547-3.629667-123.634832-32.927947-32.965809-87.206154-49.620118-128.552841-8.324596l-435.365622 434.967556c-61.508889 61.445444-86.933955 133.527133-69.7639 197.763133 12.599969 47.127344 46.947242 82.462107 91.89085 94.536097 60.875462 16.3422 130.203434-10.390651 195.177238-75.303057l390.68705-390.32173C871.999121 406.40094 893.762797 406.411173 907.177318 419.842067L907.177318 419.842067z" p-id="3344"></path></svg>