<svg viewBox="0 0 16 16" xmlns="http://www.w3.org/2000/svg" fit="" preserveAspectRatio="xMidYMid meet" focusable="false"><g id="aopaction/mark-read" stroke-width="1" fill-rule="evenodd"><path d="M15.398 12.854a.6.6 0 0 1 0 1.2h-8.37a.599.599 0 1 1 0-1.2h8.37zm0-4.523a.6.6 0 0 1 0 1.2H9.5a.599.599 0 1 1 0-1.2h5.898zM10.21 4.408a.6.6 0 0 1 .6-.6h4.587c.331 0 .598.27.598.6 0 .332-.267.6-.598.6H10.81a.599.599 0 0 1-.599-.6zm.083-3.354a.6.6 0 0 1 .299.794L5.196 13.745a.601.601 0 0 1-.563.353.598.598 0 0 1-.254-.044L.367 12.362a.601.601 0 0 1 .467-1.107l3.503 1.479L9.5 1.353a.6.6 0 0 1 .794-.3z" id="aop形状结合"></path></g></svg>
