<?xml version="1.0" standalone="no"?><!DOCTYPE svg PUBLIC "-//W3C//DTD SVG 1.1//EN" "http://www.w3.org/Graphics/SVG/1.1/DTD/svg11.dtd"><svg t="1704272813578" class="icon" viewBox="0 0 1024 1024" version="1.1" xmlns="http://www.w3.org/2000/svg" p-id="3803" xmlns:xlink="http://www.w3.org/1999/xlink" width="200" height="200"><path d="M1008.970646 545.064579l-625.221135 0c-8.300211 0-15.029354 6.729143-15.029354 15.029354s6.729143 15.029354 15.029354 15.029354l625.221135 0c8.300211 0 15.029354-6.729143 15.029354-15.029354S1017.270857 545.064579 1008.970646 545.064579z" p-id="3804"></path><path d="M1008.970646 448.876712l-625.221135 0c-8.300211 0-15.029354 6.729143-15.029354 15.029354s6.729143 15.029354 15.029354 15.029354l625.221135 0c8.300211 0 15.029354-6.729143 15.029354-15.029354S1017.270857 448.876712 1008.970646 448.876712z" p-id="3805"></path><path d="M239.46771 368.720157l-192.375734 0C21.12526 368.720157 0 389.845417 0 415.812133l0 192.375734C0 634.154583 21.12526 655.279843 47.091977 655.279843l192.375734 0c25.966716 0 47.091977-21.12526 47.091977-47.091977l0-192.375734C286.559687 389.845417 265.434427 368.720157 239.46771 368.720157zM256.500978 608.187867c0 9.392344-7.640924 17.033268-17.033268 17.033268l-192.375734 0c-9.392344 0-17.033268-7.640924-17.033268-17.033268l0-192.375734c0-9.392344 7.640924-17.033268 17.033268-17.033268l192.375734 0c9.392344 0 17.033268 7.640924 17.033268 17.033268L256.500978 608.187867z" p-id="3806"></path><path d="M1008.970646 192.375734l-625.221135 0c-8.300211 0-15.029354 6.729143-15.029354 15.029354s6.729143 15.029354 15.029354 15.029354l625.221135 0c8.300211 0 15.029354-6.729143 15.029354-15.029354S1017.270857 192.375734 1008.970646 192.375734z" p-id="3807"></path><path d="M383.749511 126.246575l625.221135 0c8.300211 0 15.029354-6.729143 15.029354-15.029354s-6.729143-15.029354-15.029354-15.029354l-625.221135 0c-8.300211 0-15.029354 6.729143-15.029354 15.029354S375.449299 126.246575 383.749511 126.246575z" p-id="3808"></path><path d="M239.46771 16.031311l-192.375734 0C21.12526 16.031311 0 37.156571 0 63.123288l0 192.375734C0 281.465738 21.12526 302.590998 47.091977 302.590998l192.375734 0c25.966716 0 47.091977-21.12526 47.091977-47.091977l0-192.375734C286.559687 37.156571 265.434427 16.031311 239.46771 16.031311zM256.500978 255.499022c0 9.392344-7.640924 17.033268-17.033268 17.033268l-192.375734 0c-9.392344 0-17.033268-7.640924-17.033268-17.033268l0-192.375734c0-9.392344 7.640924-17.033268 17.033268-17.033268l192.375734 0c9.392344 0 17.033268 7.640924 17.033268 17.033268L256.500978 255.499022z" p-id="3809"></path><path d="M1008.970646 897.753425l-625.221135 0c-8.300211 0-15.029354 6.729143-15.029354 15.029354s6.729143 15.029354 15.029354 15.029354l625.221135 0c8.300211 0 15.029354-6.729143 15.029354-15.029354S1017.270857 897.753425 1008.970646 897.753425z" p-id="3810"></path><path d="M1008.970646 801.565558l-625.221135 0c-8.300211 0-15.029354 6.729143-15.029354 15.029354s6.729143 15.029354 15.029354 15.029354l625.221135 0c8.300211 0 15.029354-6.729143 15.029354-15.029354S1017.270857 801.565558 1008.970646 801.565558z" p-id="3811"></path><path d="M239.46771 721.409002l-192.375734 0C21.12526 721.409002 0 742.534262 0 768.500978l0 192.375734C0 986.843429 21.12526 1007.968689 47.091977 1007.968689l192.375734 0c25.966716 0 47.091977-21.12526 47.091977-47.091977l0-192.375734C286.559687 742.534262 265.434427 721.409002 239.46771 721.409002zM256.500978 960.876712c0 9.392344-7.640924 17.033268-17.033268 17.033268l-192.375734 0c-9.392344 0-17.033268-7.640924-17.033268-17.033268l0-192.375734c0-9.392344 7.640924-17.033268 17.033268-17.033268l192.375734 0c9.392344 0 17.033268 7.640924 17.033268 17.033268L256.500978 960.876712z" p-id="3812"></path></svg>