<?xml version="1.0" standalone="no"?><!DOCTYPE svg PUBLIC "-//W3C//DTD SVG 1.1//EN" "http://www.w3.org/Graphics/SVG/1.1/DTD/svg11.dtd"><svg t="1704275590108" class="icon" viewBox="0 0 1024 1024" version="1.1" xmlns="http://www.w3.org/2000/svg" p-id="18206" xmlns:xlink="http://www.w3.org/1999/xlink" width="200" height="200"><path d="M767.03274739 458.19563802c-35.50957031-35.50957031-82.72617187-55.06699219-132.95566406-55.06699219-50.22246094 0-97.44609375 19.55390625-132.97324219 55.06347656-73.30429687 73.33242187-73.30429687 192.62636719 0 265.92539063 35.52714844 35.52714844 82.75078125 55.09335937 132.98027344 55.09511718h0.00351563c50.2171875 0 97.43730469-19.56621094 132.94335937-55.08984375 73.30253906-73.29550781 73.30253906-192.59121094 0.00175781-265.92714843z m-9.34277344 256.58613281c-33.01523438 33.02929688-76.90957031 51.21914063-123.60410156 51.21738281-46.69804688-0.00175781-90.60644531-18.19335938-123.6375-51.22441406-68.15039063-68.14863281-68.15039063-179.05957031 0-247.23632813 33.02753906-33.01347656 76.93417969-51.19453125 123.62871094-51.19453125 46.69804688 0 90.59765625 18.1828125 123.61289062 51.19453126 68.146875 68.18378906 68.146875 179.09472656 0 247.24335937z" p-id="18207"></path><path d="M725.22141927 500.04212239c-24.35097656-24.35273438-56.72109375-37.76484375-91.14785156-37.76484375s-66.78808594 13.41210938-91.12148438 37.75957031c-24.35273438 24.33515625-37.76484375 56.69648437-37.76484375 91.12324219s13.41210938 66.796875 37.75957031 91.14609375c24.33867187 24.35273438 56.7 37.76484375 91.12675781 37.76484375s66.796875-13.41035156 91.14785157-37.76308593c50.23476563-50.26640625 50.23476563-132.03105469 0-182.26582032z m-9.34277344 172.92480469c-21.85664062 21.85488281-50.90625 33.890625-81.80507813 33.890625-30.89355469 0-59.93964844-12.03574219-81.77871093-33.89238281-21.85664062-21.85664062-33.89238281-50.90800781-33.89238282-81.80507813 0-30.8953125 12.03574219-59.93789063 33.89238282-81.77871094 21.8390625-21.853125 50.88515625-33.88886719 81.77871093-33.88886718s59.9484375 12.0375 81.80507813 33.89238281c45.08085938 45.08613281 45.08085938 118.46777344 0 163.58203125z" p-id="18208"></path><path d="M746.78802083 478.44212239c-30.10253906-30.10253906-70.1296875-46.68046875-112.70742187-46.68046875-42.57773437 0-82.6171875 16.57792969-112.72851563 46.6734375-62.13691406 62.16855469-62.1421875 163.30078125-0.00351562 225.43945313 30.12011719 30.11835937 70.15957031 46.70683594 112.73730468 46.70683594h0.00351563c42.56894531 0 82.59609375-16.58671875 112.69863281-46.70332032 62.14042969-62.13691406 62.13691406-163.26914063 0-225.4359375z m-10.66816406 214.77128906c-27.25839844 27.26191406-63.50097656 42.27539063-102.04804688 42.27539063-38.54707031 0-74.77910156-15.01699219-102.02167969-42.27890625-27.26367188-27.26367188-42.28066406-63.50625-42.28066406-102.04980469 0-38.54707031 15.01699219-74.78261719 42.271875-102.01816406 27.24609375-27.26542969 63.48339844-42.28242187 102.03046875-42.28242187 38.54355469 0 74.784375 15.01523437 102.04804688 42.28066406 56.24296875 56.24296875 56.24824219 147.78808594 0 204.07324219z" p-id="18209"></path><path d="M822.97161458 714.78704427c-8.71875-8.71699219-20.30800781-13.51933594-32.63730469-13.51933594-12.3328125 0-23.92207031 4.80234375-32.64082031 13.51933594-8.71875 8.71875-13.51933594 20.30976563-13.51933594 32.64082031 0 12.32929687 4.80058594 23.92207031 13.51933594 32.6390625l129.21328125 129.20800781 65.278125-65.278125-129.21328125-129.20976562z m-55.93359375 55.93535156a32.71816406 32.71816406 0 0 1-9.64863281-23.29453125c0-8.79960938 3.42421875-17.07363281 9.64863281-23.29628906a32.73574219 32.73574219 0 0 1 23.29804688-9.65039063c8.79785156 0 17.06835938 3.42773438 23.29277343 9.64863282l119.87050781 119.86699218-46.59082031 46.59082032-119.87050781-119.86523438z" p-id="18210"></path><path d="M802.73040364 735.03528646a17.41464844 17.41464844 0 0 0-12.39785156-5.13457032 17.41113281 17.41113281 0 0 0-12.39257813 5.1328125 17.41992188 17.41992188 0 0 0-5.1328125 12.39433594 17.4234375 17.4234375 0 0 0 5.1328125 12.39433594l108.96503907 108.96503906 24.79042968-24.78867187-108.96503906-108.96328125z" p-id="18211"></path><path d="M976.14563802 867.9891927l-33.29824219-33.33691406-65.28164063 65.278125 33.29824219 33.33164063a24.3984375 24.3984375 0 0 0 17.37070313 7.19472656c6.56015625 0 12.72832031-2.55410156 17.36542968-7.19296875l30.54199219-30.54199219a24.38613281 24.38613281 0 0 0 7.19296875-17.3671875 24.3984375 24.3984375 0 0 0-7.18945312-17.36542969z m-9.34804688 25.38984376L936.25559896 923.91927083c-4.28378906 4.29082031-11.77382812 4.28027344-16.04531251 0.00175781l-23.96074218-23.98710937 46.58730468-46.59082032 23.96074219 23.98535157a11.27285156 11.27285156 0 0 1 3.32050781 8.02441406c0 3.03222656-1.17773438 5.88164062-3.32050781 8.02617187z" p-id="18212"></path><path d="M942.8438802 875.14524739l-24.79042968 24.78691407 10.17597656 10.209375 24.79042969-24.78867188z" p-id="18213"></path><path d="M879.88782552 126.20813802H152.89876302C114.54153646 126.20813802 83.33333333 157.41458333 83.33333333 195.77180989v601.66054688c0 38.35722656 31.20820313 69.56367187 69.56542969 69.56367187h643.37695312v-13.21523437H152.89876302c-31.07109375 0-56.35195313-25.27734375-56.35195313-56.3484375V195.77180989c0-31.07109375 25.28085937-56.3484375 56.35195313-56.3484375H879.88606771c31.07109375 0 56.34667969 25.27734375 56.34667968 56.3484375v604.14257813h13.21523438V195.77180989c0.00175781-38.35722656-31.20292969-69.56367187-69.56015625-69.56367187z" p-id="18214"></path><path d="M89.94095052 231.25852864h857.43984375v13.21523438H89.94095052z" p-id="18215"></path><path d="M173.06614583 186.16009114m-25.01542969 0a25.01542969 25.01542969 0 1 0 50.03085938 0 25.01542969 25.01542969 0 1 0-50.03085938 0Z" p-id="18216"></path><path d="M246.57259114 186.16009114m-25.01542969 0a25.01542969 25.01542969 0 1 0 50.03085938 0 25.01542969 25.01542969 0 1 0-50.03085938 0Z" p-id="18217"></path><path d="M320.07903646 186.16009114m-25.01542969 0a25.01542969 25.01542969 0 1 0 50.03085937 0 25.01542969 25.01542969 0 1 0-50.03085937 0Z" p-id="18218"></path><path d="M191.47220052 332.33626302v86.72167968h86.72167968v-86.72167968H191.47220052z m73.50644531 73.50644531H204.68743489v-60.29121094h60.29121094v60.29121094z" p-id="18219"></path><path d="M220.10520833 360.96927083h29.45742187v29.45742188H220.10520833z" p-id="18220"></path><path d="M191.47220052 494.07610677v86.72167968h86.72167968v-86.72167968H191.47220052z m73.50644531 73.50644531H204.68743489v-60.29121094h60.29121094v60.29121094z" p-id="18221"></path><path d="M220.10520833 522.70911458h29.45742187v29.45742188H220.10520833z" p-id="18222"></path><path d="M191.47220052 655.81595052v86.72167968h86.72167968v-86.72167968H191.47220052z m73.50644531 73.50644531H204.68743489v-60.29121094h60.29121094v60.29121094z"  p-id="18223"></path><path d="M220.10520833 684.44720052h29.45742187v29.45742187H220.10520833z" p-id="18224"></path><path d="M345.09270833 349.95305989h480.50332031v13.21523438H345.09270833zM345.09270833 388.22766927h196.03125v13.21523437h-196.03125zM345.09270833 511.69114583h64.87734375v13.21523437h-64.87734375zM345.09270833 549.96751302h64.87734375v13.21523437h-64.87734375zM345.09270833 673.43098958h85.64941406v13.21523437h-85.64941406zM345.09270833 711.70559895h107.55v13.21523438h-107.55zM748.80247396 532.39993489l-1.84570313-3.59121093H521.24661458l-1.84570313 3.5859375a128.48027344 128.48027344 0 0 0 1.38867188 120.17460937l1.87910156 3.45234375h222.81679688l1.87910156-3.45234375a128.58398438 128.58398438 0 0 0 1.43789062-120.16933594z m-11.24824219 110.40644531H530.60169271a115.25625 115.25625 0 0 1-1.21816407-100.78417968h209.42578125a115.36171875 115.36171875 0 0 1-1.25507812 100.78417968z"  p-id="18225"></path><path d="M728.5173177 557.43997396H539.67024739a99.81210938 99.81210938 0 0 0 0.93867188 69.94863281h186.94160156a99.94921875 99.94921875 0 0 0 0.96679687-69.94863282z" p-id="18226"></path><path d="M858.2579427 237.86614583h13.21523438v476.03847656h-13.21523437zM904.31614583 279.30657552c-12.22910156 0-22.18007813 9.95097656-22.18007813 22.18183593v139.6265625c0 12.23085938 9.94921875 22.18007813 22.18007813 22.18007813 12.234375 0 22.18359375-9.94921875 22.18359375-22.18007813v-139.6265625c0-12.23085938-9.94921875-22.18183594-22.18359375-22.18183593z m8.96835937 161.80839843a8.97714844 8.97714844 0 0 1-8.96835937 8.96660157 8.97539063 8.97539063 0 0 1-8.96484375-8.96660157v-139.6265625a8.97539063 8.97539063 0 0 1 8.96484375-8.96660156 8.97714844 8.97714844 0 0 1 8.96835937 8.96660156v139.6265625z" p-id="18227"></path></svg>