<?xml version="1.0" standalone="no"?><!DOCTYPE svg PUBLIC "-//W3C//DTD SVG 1.1//EN" "http://www.w3.org/Graphics/SVG/1.1/DTD/svg11.dtd"><svg t="1704273092973" class="icon" viewBox="0 0 1024 1024" version="1.1" xmlns="http://www.w3.org/2000/svg" p-id="4118" xmlns:xlink="http://www.w3.org/1999/xlink" width="200" height="200"><path d="M193.632 499.168l-55.968-49.52-53.008 59.904 117.232 103.728 131.824-155.84-61.088-51.68-78.992 93.408z m0 240l-55.968-49.52-53.008 59.904 117.232 103.728 131.824-155.84-61.088-51.68-78.992 93.408z m0-480l-55.968-49.52-53.008 59.92 117.232 103.728 131.824-155.856-61.088-51.664-78.992 93.392zM384 256v80h544v-80H384z m0 560h544v-80H384v80z m0-240h544v-80H384v80z"  p-id="4119"></path></svg>