<?xml version="1.0" standalone="no"?><!DOCTYPE svg PUBLIC "-//W3C//DTD SVG 1.1//EN" "http://www.w3.org/Graphics/SVG/1.1/DTD/svg11.dtd"><svg t="1704271928267" class="icon" viewBox="0 0 1024 1024" version="1.1" xmlns="http://www.w3.org/2000/svg" p-id="2730" xmlns:xlink="http://www.w3.org/1999/xlink" width="200" height="200"><path d="M554.666667 384h42.666666v85.333333h-128V298.666667h85.333334v85.333333m234.666666 0l-90.453333-90.453333 53.333333-53.333334L853.333333 341.333333v85.333334h-85.333333v42.666666h-128V384h149.333333M554.666667 149.333333V85.333333h-42.666667v85.333334h42.666667v85.333333h-85.333334V170.666667H384V85.333333H341.333333v85.333334H256v42.666666H170.666667V170.666667c0-47.36 37.973333-85.333333 85.333333-85.333334h341.333333l100.693334 100.693334-53.333334 53.333333L554.666667 149.333333M853.333333 853.333333a85.333333 85.333333 0 0 1-85.333333 85.333334h-85.333333v-85.333334h85.333333v-42.666666h85.333333v42.666666m-85.333333-213.333333h85.333333v128h-85.333333v-128m-256 298.666667v-85.333334h128v85.333334h-128m-170.666667 0v-85.333334h128v85.333334H341.333333m-85.333333 0a85.333333 85.333333 0 0 1-85.333333-85.333334v-85.333333h85.333333v85.333333h42.666667v85.333334H256m-85.333333-341.333334h85.333333v128H170.666667v-128m0-170.666666h85.333333v128H170.666667v-128m597.333333 42.666666h85.333333v128h-85.333333v-128M170.666667 256h85.333333v128H170.666667V256z"  p-id="2731"></path></svg>