<?xml version="1.0" standalone="no"?><!DOCTYPE svg PUBLIC "-//W3C//DTD SVG 1.1//EN" "http://www.w3.org/Graphics/SVG/1.1/DTD/svg11.dtd"><svg t="1704273944084" class="icon" viewBox="0 0 1272 1024" version="1.1" xmlns="http://www.w3.org/2000/svg" p-id="5055" xmlns:xlink="http://www.w3.org/1999/xlink" width="248.4375" height="200"><path d="M902.78857422 501.20033306a35.9988908 35.9988908 0 0 1-35.9988908-35.99889081V357.11117253H377.20476985v309.5904603h489.58491357V646.99584013a35.9988908 35.9988908 0 1 1 71.9977816-1e-8v55.70468351a35.9988908 35.9988908 0 0 1-35.9988908 35.99889079H341.20587905a35.9988908 35.9988908 0 0 1-35.9988908-35.99889079v-381.58824117a35.9988908 35.9988908 0 0 1 35.9988908-35.9988908h561.58269517a35.9988908 35.9988908 0 0 1 35.9988908 35.9988908V465.20144225a35.9988908 35.9988908 0 0 1-35.9988908 35.99889081zM377.20476985 810.79079262a35.9988908 35.9988908 0 1 1 0 71.9977816H305.20698825C225.80783509 882.78857422 161.21142578 818.19216491 161.21142578 738.79301174V285.20698826C161.21142578 205.80783509 225.80783509 141.21142578 305.20698825 141.21142578h71.9977816a35.9988908 35.9988908 0 1 1 0 71.9977816H305.20698825c-39.69957658 0-71.9977816 32.29820501-71.99778087 71.99778088v453.58602348c0 39.69957658 32.29820501 71.9977816 71.99778087 71.99778088h71.9977816z m561.58269517-669.57936684c79.39915316 0 143.99556248 64.59640931 143.99556247 143.99556248v453.58602348c0 79.39915316-64.59640931 143.99556248-143.99556247 143.99556248H866.78968342a35.9988908 35.9988908 0 1 1 0-71.9977816h71.9977816c39.69957658 0 71.9977816-32.29820501 71.9977816-71.99778088V285.20698826c0-39.69957658-32.29820501-71.9977816-71.9977816-71.99778088H866.78968342a35.9988908 35.9988908 0 1 1 0-71.9977816h71.9977816z" p-id="5056"></path></svg>