<?xml version="1.0" standalone="no"?><!DOCTYPE svg PUBLIC "-//W3C//DTD SVG 1.1//EN" "http://www.w3.org/Graphics/SVG/1.1/DTD/svg11.dtd"><svg t="1704273323165" class="icon" viewBox="0 0 1024 1024" version="1.1" xmlns="http://www.w3.org/2000/svg" p-id="4421" xmlns:xlink="http://www.w3.org/1999/xlink" width="200" height="200"><path d="M425.95507812 748.42578125H173.88476562c-22.76367188 0-41.22070313-18.45703125-41.22070312-41.22070313V171.86328125c0-22.76367188 18.45703125-41.22070313 41.22070313-41.22070313h544.13085937c22.76367188 0 41.22070313 18.45703125 41.22070313 41.22070313v199.3359375c0 15.90820313 12.91992188 28.828125 28.828125 28.828125 15.90820313 0 28.828125-12.91992188 28.828125-28.828125V114.29492187c0-22.76367188-18.45703125-41.22070313-41.22070313-41.22070312H116.22851562c-22.76367188 0-41.22070313 18.45703125-41.22070312 41.22070313v650.56640625c0 22.76367188 18.45703125 41.22070313 41.22070313 41.22070312H425.8671875c15.90820313 0 28.828125-12.91992188 28.828125-28.828125 0-15.90820313-12.83203125-28.828125-28.74023438-28.828125z" p-id="4422"></path><path d="M942.75195313 838.77734375l-105.99609376 105.99609375c-8.96484375 8.96484375-23.81835938 8.0859375-31.72851562-1.93359375L681.27734375 784.28515625c-13.53515625-17.40234375-41.22070313-10.8984375-45.703125 10.72265625l-10.81054688 52.55859375c-9.31640625 45.3515625-72.7734375 48.69140625-86.83593749 4.5703125L402.83984375 427.625c-5.18554688-16.43554688 10.28320313-31.90429688 26.63085938-26.63085938L853.89453125 535.99414063c44.12109375 14.0625 40.69335938 77.60742188-4.65820313 86.83593749l-54.31640624 11.07421875c-21.35742188 4.39453125-28.03710938 31.55273438-11.16210938 45.3515625l157.41210938 128.14453126c9.75585938 7.91015625 10.45898438 22.5 1.58203124 31.37695312z m-101.95312501 40.86914063l37.52929688-37.52929688c8.87695313-8.87695313 8.17382813-23.46679688-1.58203125-31.46484375l-191.07421875-155.56640625c-16.875-13.79882813-10.1953125-40.95703125 11.16210938-45.3515625l95.09765624-19.3359375c14.765625-2.98828125 15.90820313-23.73046875 1.49414063-28.30078125L496.1796875 467.52734375c-16.43554688-5.18554688-31.90429688 10.28320313-26.63085938 26.63085938l94.65820313 297.59765624c4.5703125 14.4140625 25.3125 13.27148438 28.30078125-1.49414062l19.59960938-95.625c4.39453125-21.62109375 32.08007813-28.03710938 45.70312499-10.72265625L809.0703125 877.71289063c7.82226563 10.01953125 22.67578125 10.98632813 31.72851563 1.93359374z" p-id="4423"></path></svg>