<?xml version="1.0" standalone="no"?><!DOCTYPE svg PUBLIC "-//W3C//DTD SVG 1.1//EN" "http://www.w3.org/Graphics/SVG/1.1/DTD/svg11.dtd"><svg t="1704271786306" class="icon" viewBox="0 0 1024 1024" version="1.1" xmlns="http://www.w3.org/2000/svg" p-id="2576" xmlns:xlink="http://www.w3.org/1999/xlink" width="200" height="200"><path d="M779.822 367.987h-10.317V272.55C770.365 116.93 657.733 0 508.99 0 362.828 0 251.056 116.93 251.056 272.55v95.437h-7.738c-78.24 0-141.004 66.203-141.004 143.583v367.987c0 80.82 63.624 143.583 141.004 143.583h536.504c78.24 0 141.004-66.203 141.004-143.583V511.57c-1.72-79.96-65.343-143.583-141.004-143.583zM294.905 270.83c0-134.126 90.277-228.702 214.086-228.702 126.388 0 216.665 97.156 216.665 228.702v95.436h-433.33v-95.436h2.58z m582.932 608.726c0 55.885-43.849 102.314-97.155 102.314H243.318c-53.306 0-97.155-46.429-97.155-102.314V511.57c0-55.886 43.849-102.314 97.155-102.314h537.364c53.306 0 97.155 46.428 97.155 102.314v367.987z" p-id="2577"></path><path d="M507.271 567.456c-34.391 0-61.044 29.232-61.044 63.624 0 24.074 12.037 43.849 31.812 55.886v104.893c0 17.196 14.616 31.812 31.812 31.812s31.811-14.616 31.811-31.812V686.966c19.775-12.037 31.812-31.812 31.812-55.886-6.018-33.532-32.671-63.624-66.203-63.624z" p-id="2578"></path></svg>