<?xml version="1.0" standalone="no"?><!DOCTYPE svg PUBLIC "-//W3C//DTD SVG 1.1//EN" "http://www.w3.org/Graphics/SVG/1.1/DTD/svg11.dtd"><svg t="1675675334821" class="icon" viewBox="0 0 1024 1024" version="1.1" xmlns="http://www.w3.org/2000/svg" xmlns:xlink="http://www.w3.org/1999/xlink"><path d="M373.4855 62c-76.5 0-138.375 62.0145-138.375 138.5145v242.298H131.1875c-19.035 0-34.596 15.5565-34.596 34.596v207.702c0 19.035 15.5565 34.5915 34.596 34.5915h103.923v103.7835c0 76.5 61.875 138.5145 138.375 138.5145h415.404c76.5 0 138.5145-62.0145 138.5145-138.5145V338.885c0-36.693-34.2675-72.009-94.5-131.202l-25.5915-25.596L781.7165 156.5C722.5325 96.2675 687.248 62 650.5145 62H373.49z m0 69.1875h252.423c24.921 6.2325 24.606 37.035 24.606 67.5v105.6105c0 19.035 15.5565 34.5915 34.596 34.5915h103.779c34.6185 0 69.327-0.0225 69.327 34.596v450c0 38.0745-31.248 69.327-69.327 69.327H373.49c-38.079 0-69.1875-31.2525-69.1875-69.327v-103.7835h346.2165c19.0395 0 34.596-15.552 34.596-34.5915V477.4085c0-19.0395-15.5565-34.596-34.596-34.596H304.298V200.5145c0-38.0745 31.1085-69.327 69.1875-69.327zM127.952 495.827h19.4085v64.971H217.385V495.827h20.25v154.4085h-20.25V578.51H147.365v71.721h-19.4085V495.827z m133.3125 0h107.1585v17.721h-43.875v136.6875H305.135v-136.6875h-43.875v-17.721z m130.7835 0h28.6875l43.875 125.721h0.8415l43.0335-125.721h29.529v154.4085h-19.404v-93.6585c0-9.5625 0.279-23.3415 0.8415-41.3415h-0.8415l-46.4085 135h-16.875l-46.404-135h-0.846c1.125 19.6875 1.6875 34.029 1.6875 43.029v91.971h-17.7165V495.827z m188.154 0h19.4085v136.6875h60.75v17.721h-80.1585V495.827z"></path></svg>