<?xml version="1.0" standalone="no"?><!DOCTYPE svg PUBLIC "-//W3C//DTD SVG 1.1//EN" "http://www.w3.org/Graphics/SVG/1.1/DTD/svg11.dtd"><svg t="1707114020826" class="icon" viewBox="0 0 1024 1024" version="1.1" xmlns="http://www.w3.org/2000/svg" p-id="112974" xmlns:xlink="http://www.w3.org/1999/xlink" width="200" height="200"><path d="M598.4256 851.7632c-1.792-8.9088-9.728-13.824-24.32-9.984 11.6224-49.3568 17.2544-77.0048 41.472-97.9968 34.9696-30.3616 4.096-64.1024-22.528-60.1088-20.992 3.1744-7.68-26.0096-26.4704-27.648-18.7392-1.536-43.2128-38.8096-70.144-51.6608-14.336-6.8096-28.3648-24.9856-50.432-25.8048-19.5584-0.768-48.128 16.5376-48.128 3.2256 0-42.9568-4.352-73.5744-5.2224-85.76-0.7168-9.8304-6.4-3.328 19.968-2.7136 14.3872 0.4096 7.3728-28.8768 21.6064-30.0032 13.9776-1.1264 47.3088 13.056 55.808 7.424 7.8848-5.2736 57.9584 131.4304 57.9584 22.5792 0-12.9024-6.656-35.328 0-47.616 26.4192-48.2816 51.2-87.7056 48.9984-93.44-1.28-3.2768-27.0848-5.9392-47.7184 1.024-6.9632 2.304 2.2016 13.2096-7.7824 15.5136-37.5296 8.704-70.656-10.0864-59.0336-27.6992 11.8784-18.0736 54.9376-7.8848 58.6752-44.1856 2.2016-20.736 3.9936-44.8 5.1712-62.6688 50.4832 7.8848 44.9024-65.536-30.1056-73.3696a351.232 351.232 0 0 1 327.5776 235.8272 14.336 14.336 0 0 0-8.3456-3.7888c-22.6816-56.6784-77.7728-15.6672-59.0848 34.304-100.0448 76.9024-74.4448 130.56-41.5744 161.28 17.3056 16.1792 33.792 40.448 44.544 57.856-11.6736 34.1504 43.0592 20.48 70.0928-37.376a351.5904 351.5904 0 0 1-250.9824 242.7904M160.9216 511.6928c0-24.832 2.56-49.0496 7.4752-72.3968 15.1552 16.2304 50.8928 15.872 59.5968-8.3968 15.616 9.3184 36.5568 11.008 36.5568 29.5936 0 61.2864 2.2016 126.976 57.856 128 1.5872 0 31.0784 11.2128 45.1584 47.616 4.8128 12.544 24.064 0 45.056 0 10.5472 0 0 17.664 0 55.9616 0 38.144 82.2784 96.8704 82.2784 96.8704-0.4096 25.2416 0.6656 45.6704 2.7648 61.952a137.6768 137.6768 0 0 0-46.5408 6.2976 350.976 350.976 0 0 1-290.2016-345.4976m702.1056 5.7856a401.2032 401.2032 0 0 0-7.9872-59.8528c0.3584-6.912 0.512-13.5168 0.3072-19.6096a352 352 0 0 1 7.68 79.4624M921.6 511.6928C921.6 285.6448 738.2016 102.4 512 102.4S102.4 285.6448 102.4 511.6928c0 208.7936 156.4672 381.0304 358.656 406.1184a204.4416 204.4416 0 0 0 55.296 3.072C740.5056 918.6816 921.6 736.256 921.6 511.744" p-id="112975"></path><path d="M993.536 809.1648c-59.904 103.68-321.536 64.6656-584.4992-87.1424S-18.5344 363.1104 41.3184 259.3792c21.8624-37.8368 70.656-56.6784 136.4992-57.9584l1.024 52.0192c-51.3024 0.9728-81.92 13.6704-92.4672 31.9488-38.912 67.3792 108.6464 253.0304 348.672 391.6288 239.9744 138.5472 474.5728 173.5168 513.4336 106.1376 9.5232-16.4352 3.328-51.3536-35.072-87.808l35.84-37.6832c65.792 62.464 59.4432 125.184 44.288 151.5008z m0 0c-59.904 103.68-321.536 64.6656-584.4992-87.1424S-18.5344 363.1104 41.3184 259.3792c21.8624-37.8368 70.656-56.6784 136.4992-57.9584l1.024 52.0192c-51.3024 0.9728-81.92 13.6704-92.4672 31.9488-38.912 67.3792 108.6464 253.0304 348.672 391.6288 239.9744 138.5472 474.5728 173.5168 513.4336 106.1376 9.5232-16.4352 3.328-51.3536-35.072-87.808l35.84-37.6832c65.792 62.464 59.4432 125.184 44.288 151.5008z" p-id="112976"></path></svg>