<?xml version="1.0" encoding="UTF-8"?>
<svg width="40px" height="40px" viewBox="0 0 40 40" version="1.1" xmlns="http://www.w3.org/2000/svg" xmlns:xlink="http://www.w3.org/1999/xlink">
    <title>参数</title>
    <g id="参数" stroke="none" stroke-width="1" fill="none" fill-rule="evenodd">
        <g id="双向参数">
            <rect id="矩形" x="0" y="0" width="40" height="40"></rect>
            <path d="M26.1610984,11.4285714 C26.9951695,11.4285714 27.7875967,11.7930364 28.3304029,12.4263104 L35.0903618,20.3129291 C35.6406325,20.9549115 35.6406325,21.9022314 35.0903618,22.5442138 L28.3304029,30.4308325 C27.7875967,31.0641065 26.9951695,31.4285714 26.1610984,31.4285714 L12.1991093,31.4285714 C11.3650382,31.4285714 10.572611,31.0641065 10.0298047,30.4308325 L3.26984582,22.5442138 C2.7195752,21.9022314 2.7195752,20.9549115 3.26984582,20.3129291 L10.0298047,12.4263104 C10.572611,11.7930364 11.3650382,11.4285714 12.1991093,11.4285714 L26.1610984,11.4285714 Z" id="路径" fill="#8C8C8C" fill-rule="nonzero"></path>
            <path d="M26.1610984,11.4285714 L10.0298047,30.4308325 L3.26984582,22.5442138 C2.7195752,21.9022314 2.7195752,20.9549115 3.26984582,20.3129291 L10.0298047,12.4263104 C10.572611,11.7930364 11.3650382,11.4285714 12.1991093,11.4285714 L26.1610984,11.4285714 Z" id="路径" fill="#B4B4B4" fill-rule="nonzero"></path>
        </g>
    </g>
</svg>