<svg width="29" height="29" viewBox="0 0 29 29" fill="none" xmlns="http://www.w3.org/2000/svg">
<path d="M22.8587 4.48913H21.2609V2.43478C21.2609 2.0553 20.9556 1.75 20.5761 1.75H3.68478C3.3053 1.75 3 2.0553 3 2.43478V10.1957C3 10.5751 3.3053 10.8804 3.68478 10.8804H20.5761C20.9556 10.8804 21.2609 10.5751 21.2609 10.1957V6.31522H22.1739V12.0217H12.159C11.5284 12.0217 11.0177 12.5325 11.0177 13.163V17.0435H9.76223C9.63668 17.0435 9.53397 17.1462 9.53397 17.2717V23.7772C9.53397 23.8086 9.53967 23.8399 9.55109 23.8656C9.53967 23.9113 9.53397 23.9569 9.53397 24.0054C9.53397 25.3293 10.6068 26.4022 11.9307 26.4022C13.2546 26.4022 14.3274 25.3293 14.3274 24.0054C14.3274 23.9569 14.3217 23.9113 14.3103 23.8656C14.3217 23.8371 14.3274 23.8086 14.3274 23.7772V17.2717C14.3274 17.1462 14.2247 17.0435 14.0992 17.0435H12.8438V13.8478H22.8587C23.4893 13.8478 24 13.3371 24 12.7065V5.63043C24 4.99986 23.4893 4.48913 22.8587 4.48913Z" fill="var(--ibiz-color-icon-1)"/>
<rect x="2.25" y="1.625" width="19.25" height="9.625" rx="0.875" fill="var(--ibiz-color-icon-0)"/>
</svg>
