<svg width="29" height="29" viewBox="0 0 29 29" fill="none" xmlns="http://www.w3.org/2000/svg">
<path d="M14.5 2.5C7.73516 2.5 2.25 7.98516 2.25 14.75C2.25 21.5148 7.73516 27 14.5 27C21.2648 27 26.75 21.5148 26.75 14.75C26.75 7.98516 21.2648 2.5 14.5 2.5ZM14.5 21.8594C13.8957 21.8594 13.4062 21.3699 13.4062 20.7656C13.4062 20.1613 13.8957 19.6719 14.5 19.6719C15.1043 19.6719 15.5938 20.1613 15.5938 20.7656C15.5938 21.3699 15.1043 21.8594 14.5 21.8594ZM16.2199 15.8574C15.9723 15.953 15.7592 16.1211 15.6085 16.3396C15.4578 16.5581 15.3764 16.817 15.375 17.0824V17.7031C15.375 17.8234 15.2766 17.9219 15.1562 17.9219H13.8438C13.7234 17.9219 13.625 17.8234 13.625 17.7031V17.1152C13.625 16.4836 13.8082 15.8602 14.1691 15.3406C14.5219 14.832 15.0141 14.4438 15.5938 14.2223C16.5234 13.8641 17.125 13.0848 17.125 12.2344C17.125 11.0285 15.9465 10.0469 14.5 10.0469C13.0535 10.0469 11.875 11.0285 11.875 12.2344V12.4422C11.875 12.5625 11.7766 12.6609 11.6562 12.6609H10.3438C10.2234 12.6609 10.125 12.5625 10.125 12.4422V12.2344C10.125 11.1598 10.5953 10.1563 11.4484 9.40977C12.2688 8.69063 13.3516 8.29688 14.5 8.29688C15.6484 8.29688 16.7312 8.69336 17.5516 9.40977C18.4047 10.1563 18.875 11.1598 18.875 12.2344C18.875 13.8148 17.8332 15.2367 16.2199 15.8574Z" fill="var(--ibiz-color-icon-0)"/>
<path d="M13.4062 20.7656C13.4062 21.0557 13.5215 21.3339 13.7266 21.539C13.9317 21.7441 14.2099 21.8594 14.5 21.8594C14.7901 21.8594 15.0683 21.7441 15.2734 21.539C15.4785 21.3339 15.5938 21.0557 15.5938 20.7656C15.5938 20.4755 15.4785 20.1973 15.2734 19.9922C15.0683 19.7871 14.7901 19.6719 14.5 19.6719C14.2099 19.6719 13.9317 19.7871 13.7266 19.9922C13.5215 20.1973 13.4062 20.4755 13.4062 20.7656ZM17.5516 9.40977C16.7312 8.69336 15.6484 8.29688 14.5 8.29688C13.3516 8.29688 12.2687 8.69063 11.4484 9.40977C10.5953 10.1563 10.125 11.1598 10.125 12.2344V12.4422C10.125 12.5625 10.2234 12.6609 10.3438 12.6609H11.6562C11.7766 12.6609 11.875 12.5625 11.875 12.4422V12.2344C11.875 11.0285 13.0535 10.0469 14.5 10.0469C15.9465 10.0469 17.125 11.0285 17.125 12.2344C17.125 13.0848 16.5234 13.8641 15.5938 14.2223C15.0141 14.4438 14.5219 14.832 14.1691 15.3406C13.8082 15.8602 13.625 16.4836 13.625 17.1152V17.7031C13.625 17.8234 13.7234 17.9219 13.8438 17.9219H15.1562C15.2766 17.9219 15.375 17.8234 15.375 17.7031V17.0824C15.3764 16.817 15.4578 16.5581 15.6085 16.3396C15.7592 16.1211 15.9723 15.953 16.2199 15.8574C17.8332 15.2367 18.875 13.8148 18.875 12.2344C18.875 11.1598 18.4047 10.1563 17.5516 9.40977Z" fill="var(--ibiz-color-icon-1)"/>
</svg>
