<?xml version="1.0" standalone="no"?><!DOCTYPE svg PUBLIC "-//W3C//DTD SVG 1.1//EN" "http://www.w3.org/Graphics/SVG/1.1/DTD/svg11.dtd"><svg t="1663925850344" class="icon" viewBox="0 0 1024 1024" version="1.1" xmlns="http://www.w3.org/2000/svg" p-id="4874" xmlns:xlink="http://www.w3.org/1999/xlink" width="200" height="200"><path d="M896 435.2a25.6 25.6 0 0 1-25.6-25.6v-256H640a25.6 25.6 0 1 1 0-51.2h256a25.6 25.6 0 0 1 25.6 25.6v281.6a25.6 25.6 0 0 1-25.6 25.6zM844.8 921.6H128a25.6 25.6 0 0 1-25.6-25.6V179.2a25.6 25.6 0 0 1 25.6-25.6h358.4a25.6 25.6 0 1 1 0 51.2H153.6v665.6h665.6V537.6a25.6 25.6 0 1 1 51.2 0V896a25.6 25.6 0 0 1-25.6 25.6z" p-id="4875" ></path><path d="M533.952 515.648a25.6 25.6 0 0 1-18.112-43.712l362.048-362.048a25.6 25.6 0 0 1 36.224 36.224L552.064 508.16a25.472 25.472 0 0 1-18.112 7.488z" p-id="4876" ></path></svg>