<svg width="29" height="29" viewBox="0 0 29 29" fill="none" xmlns="http://www.w3.org/2000/svg">
<rect opacity="0.01" x="0.5" y="0.75" width="28" height="28" fill="black"/>
<path d="M15.7532 5.27353C19.0871 5.95977 21.599 8.94769 21.599 12.5293V13.3992C21.599 15.5788 22.3891 17.675 23.814 19.3038L24.152 19.6879C24.5356 20.1275 24.6315 20.7476 24.394 21.2797C24.1566 21.8119 23.6359 22.1543 23.0605 22.1543H5.52297C4.94752 22.1543 4.42555 21.8119 4.1898 21.2797C3.95405 20.7476 4.04835 20.1275 4.43071 19.6879L4.76941 19.3038C6.19615 17.675 6.98443 15.5788 6.98443 13.3992V12.5293C6.98443 8.94769 9.4552 5.95977 12.8303 5.27353V4.38507C12.8303 3.5674 13.4833 2.9043 14.2917 2.9043C15.1001 2.9043 15.7532 3.5674 15.7532 4.38507V5.27353Z" fill="var(--ibiz-color-icon-0)"/>
<path d="M14.2916 26.5963C13.5152 26.5963 12.7707 26.2863 12.2227 25.731C11.6746 25.1757 11.3687 24.3798 11.3687 23.6348H17.2145C17.2145 24.3798 16.9085 25.1757 16.3604 25.731C15.8124 26.2863 15.0269 26.5963 14.2916 26.5963Z" fill="var(--ibiz-color-icon-1)"/>
</svg>
