<svg width="29" height="29" viewBox="0 0 29 29" fill="none" xmlns="http://www.w3.org/2000/svg">
<rect opacity="0.01" x="0.5" y="0.75" width="28" height="28" fill="black"/>
<path d="M25.5163 12.3595H22.9508C22.7618 11.691 22.4975 11.0575 22.165 10.4643L23.9815 8.6495C24.461 8.16825 24.461 7.386 23.9815 6.90475L22.3435 5.27025C21.8623 4.78725 21.0817 4.78725 20.5987 5.27025L18.7858 7.085C18.1925 6.7525 17.5555 6.4865 16.8888 6.29925V3.73375C16.8888 3.05125 16.3375 2.5 15.6567 2.5H13.3433C12.6625 2.5 12.1112 3.05125 12.1112 3.73375V6.29925C11.4445 6.4865 10.8075 6.7525 10.2143 7.085L8.40125 5.27025C7.91825 4.78725 7.13775 4.78725 6.6565 5.27025L5.02025 6.90475C4.539 7.386 4.539 8.16825 5.02025 8.6495L6.835 10.4643C6.5025 11.0575 6.23825 11.691 6.04925 12.3595H3.48375C2.803 12.3595 2.25 12.9125 2.25 13.5933V15.905C2.25 16.5857 2.803 17.1388 3.48375 17.1388H6.04925C6.23825 17.8055 6.5025 18.4425 6.835 19.0358L5.02025 20.8487C4.539 21.33 4.539 22.1123 5.02025 22.5935L6.6565 24.2297C7.13775 24.711 7.91825 24.711 8.40125 24.2297L10.2143 22.415C10.8075 22.7458 11.4445 23.0118 12.1112 23.2008V25.7663C12.1112 26.447 12.6625 27 13.3433 27H15.6567C16.3375 27 16.8888 26.447 16.8888 25.7663V23.2008C17.5555 23.0118 18.1925 22.7458 18.7858 22.415L20.5987 24.2297C21.0817 24.711 21.8623 24.711 22.3435 24.2297L23.9815 22.5935C24.461 22.1123 24.461 21.33 23.9815 20.8487L22.165 19.0358C22.4975 18.4408 22.7618 17.8055 22.9508 17.1388H25.5163C26.197 17.1387 26.75 16.5857 26.75 15.905V13.5933C26.75 12.9125 26.197 12.3595 25.5163 12.3595Z" fill="var(--ibiz-color-icon-0)"/>
<path d="M14.5004 19.8074C11.7074 19.8074 9.44287 17.5429 9.44287 14.7499C9.44287 11.9569 11.7074 9.69238 14.5004 9.69238C17.2934 9.69238 19.5579 11.9569 19.5579 14.7499C19.5579 17.5429 17.2934 19.8074 14.5004 19.8074Z" fill="var(--ibiz-color-icon-1)"/>
<path d="M12.0796 14.7503C12.0796 16.087 13.1632 17.1706 14.4998 17.1706C15.8365 17.1706 16.9201 16.087 16.9201 14.7503C16.9201 13.4137 15.8365 12.3301 14.4998 12.3301C13.1632 12.3301 12.0796 13.4137 12.0796 14.7503H12.0796Z" fill="var(--ibiz-color-icon-0)"/>
</svg>
