<?xml version="1.0" standalone="no"?><!DOCTYPE svg PUBLIC "-//W3C//DTD SVG 1.1//EN" "http://www.w3.org/Graphics/SVG/1.1/DTD/svg11.dtd"><svg t="1704273203600" class="icon" viewBox="0 0 1024 1024" version="1.1" xmlns="http://www.w3.org/2000/svg" p-id="4271" xmlns:xlink="http://www.w3.org/1999/xlink" width="200" height="200"><path d="M821.375 320.75h-343.125c-61.875 0-106.875-50.625-106.875-106.875 0-61.875 50.625-106.875 106.875-106.875h343.125c61.875 0 106.875 50.625 106.875 106.875 0 61.875-45 106.875-106.875 106.875z m-343.125-163.125c-33.75 0-56.25 28.125-56.25 56.25 0 33.75 28.125 56.25 56.25 56.25h343.125c33.75 0 56.25-28.125 56.25-56.25 0-33.75-28.125-56.25-56.25-56.25h-343.125zM821.375 917h-343.125c-61.875 0-106.875-50.625-106.875-106.875 0-61.875 50.625-106.875 106.875-106.875h343.125c61.875 0 106.875 50.625 106.875 106.875 0 56.25-45 106.875-106.875 106.875z m-343.125-163.125c-33.75 0-56.25 28.125-56.25 56.25 0 33.75 28.125 56.25 56.25 56.25h343.125c33.75 0 56.25-28.125 56.25-56.25 0-33.75-28.125-56.25-56.25-56.25h-343.125zM821.375 624.5h-343.125c-61.875 0-106.875-50.625-106.875-106.875 0-61.875 50.625-106.875 106.875-106.875h343.125c61.875 0 106.875 50.625 106.875 106.875 0 61.875-45 106.875-106.875 106.875z m-343.125-163.125c-33.75 0-56.25 28.125-56.25 56.25 0 33.75 28.125 56.25 56.25 56.25h343.125c33.75 0 56.25-28.125 56.25-56.25 0-33.75-28.125-56.25-56.25-56.25h-343.125z" p-id="4272"></path><path d="M213.875 320.75h-11.25c-61.875 0-106.875-50.625-106.875-106.875 0-61.875 50.625-106.875 106.875-106.875h11.25c61.875 0 106.875 50.625 106.875 106.875 0 61.875-45 106.875-106.875 106.875z m-11.25-163.125c-33.75 0-56.25 28.125-56.25 56.25 0 33.75 28.125 56.25 56.25 56.25h11.25c33.75 0 56.25-28.125 56.25-56.25 0-33.75-28.125-56.25-56.25-56.25h-11.25zM213.875 917h-11.25c-61.875 0-106.875-50.625-106.875-106.875 0-61.875 50.625-106.875 106.875-106.875h11.25c61.875 0 106.875 50.625 106.875 106.875 0 56.25-45 106.875-106.875 106.875z m-11.25-163.125c-33.75 0-56.25 28.125-56.25 56.25 0 33.75 28.125 56.25 56.25 56.25h11.25c33.75 0 56.25-28.125 56.25-56.25 0-33.75-28.125-56.25-56.25-56.25h-11.25zM213.875 624.5h-11.25c-61.875 0-106.875-50.625-106.875-106.875 0-61.875 50.625-106.875 106.875-106.875h11.25c61.875 0 106.875 50.625 106.875 106.875 0 61.875-45 106.875-106.875 106.875z m-11.25-163.125c-33.75 0-56.25 28.125-56.25 56.25 0 33.75 28.125 56.25 56.25 56.25h11.25c33.75 0 56.25-28.125 56.25-56.25 0-33.75-28.125-56.25-56.25-56.25h-11.25z" p-id="4273"></path></svg>