<?xml version="1.0" standalone="no"?><!DOCTYPE svg PUBLIC "-//W3C//DTD SVG 1.1//EN" "http://www.w3.org/Graphics/SVG/1.1/DTD/svg11.dtd"><svg t="1704272299517" class="icon" viewBox="0 0 1024 1024" version="1.1" xmlns="http://www.w3.org/2000/svg" p-id="3189" xmlns:xlink="http://www.w3.org/1999/xlink" width="200" height="200"><path d="M426.666667 597.333333h-85.333334v-85.333333z" p-id="3190"></path><path d="M853.333333 955.733333H170.666667c-66.030933 0-102.4-36.369067-102.4-102.4V426.666667c0-66.030933 36.369067-102.4 102.4-102.4h334.267733L755.933867 73.2672a17.0496 17.0496 0 0 1 24.132266 0l85.333334 85.333333a17.0496 17.0496 0 0 1 0 24.132267L723.8656 324.266667H853.333333c66.030933 0 102.4 36.369067 102.4 102.4v426.666666c0 66.030933-36.369067 102.4-102.4 102.4z m-665.6-34.133333h648.533334V358.4h-146.5344L438.818133 609.314133l-0.6144 0.580267a17.066667 17.066667 0 0 1-10.7008 4.488533H427.349333h-0.1024l-0.034133 0.017067h-0.0512-0.238933-0.1024-85.435734a17.066667 17.066667 0 0 1-17.066666-17.066667v-85.333333-0.0512a16.861867 16.861867 0 0 1 5.000533-12.014933L470.801067 358.4H187.733333v563.2z m682.666667-562.1248v561.066667c35.242667-4.829867 51.2-26.112 51.2-67.208534V426.666667c0-41.079467-15.957333-62.3616-51.2-67.191467z m-716.8 0c-35.242667 4.829867-51.2 26.112-51.2 67.191467v426.666666c0 41.079467 15.957333 62.3616 51.2 67.208534V359.4752zM358.4 580.266667h27.067733L358.4 553.198933V580.266667z m7.0656-68.266667L426.666667 573.201067 743.867733 256 682.666667 194.798933 365.4656 512z m341.333333-341.333333L768 231.867733 829.201067 170.666667 768 109.4656 706.798933 170.666667zM682.666667 614.4H512a17.066667 17.066667 0 1 1 0-34.133333h170.666667a17.066667 17.066667 0 1 1 0 34.133333z" p-id="3191"></path></svg>