<svg width="256" height="90" viewBox="0 0 256 90" xmlns="http://www.w3.org/2000/svg">
<g clip-path="url(#clip0_304_42678)">
<path d="M106.684 65.81H123.352V68.168H106.684V65.81ZM127.978 58.79L130.012 59.402C128.95 62.462 127.24 65.72 125.404 67.79C125.206 67.286 124.612 66.08 124.234 65.558C125.746 63.902 127.15 61.346 127.978 58.79ZM126.52 63.758L128.554 61.706L128.572 61.724V75.602H126.52V63.758ZM134.188 58.808H136.294V75.494H134.188V58.808ZM129.616 61.922H141.28V63.974H129.616V61.922ZM131.812 70.652H138.706V72.578H131.812V70.652ZM137.05 63.074C138.004 66.134 139.822 69.392 141.766 71.228C141.262 71.606 140.542 72.344 140.164 72.92C138.184 70.76 136.51 67.07 135.52 63.524L137.05 63.074ZM133.522 62.912L135.07 63.344C134.044 67.07 132.334 70.778 130.192 72.974C129.85 72.452 129.13 71.696 128.662 71.336C130.714 69.5 132.568 66.116 133.522 62.912ZM150.586 59.186H152.782V72.146C152.782 73.226 152.908 73.406 153.79 73.406C154.186 73.406 155.986 73.406 156.418 73.406C157.3 73.406 157.444 72.776 157.57 70.238C158.092 70.616 158.974 71.012 159.586 71.138C159.316 74.252 158.74 75.404 156.616 75.404C156.094 75.404 154.006 75.404 153.52 75.404C151.252 75.404 150.586 74.684 150.586 72.128V59.186ZM157.336 62.192L158.92 64.082C156.886 65.522 154.312 66.872 151.972 67.97C151.828 67.466 151.414 66.71 151.108 66.242C153.34 65.18 155.734 63.56 157.336 62.192ZM147.112 58.952L149.236 59.672C147.886 62.876 145.672 66.206 143.404 68.294C143.188 67.736 142.558 66.548 142.162 66.008C144.106 64.334 145.996 61.67 147.112 58.952ZM145.204 64.028L147.328 61.904L147.364 61.94V75.584H145.204V64.028ZM161.458 61.796H172.654V63.974H161.458V61.796ZM171.538 61.796H173.95C173.95 61.796 173.932 62.588 173.914 62.894C173.662 70.436 173.392 73.208 172.672 74.144C172.15 74.864 171.628 75.098 170.854 75.206C170.152 75.332 169.018 75.296 167.938 75.278C167.902 74.612 167.578 73.604 167.182 72.956C168.262 73.046 169.252 73.046 169.738 73.046C170.098 73.064 170.296 72.992 170.512 72.758C171.088 72.146 171.34 69.248 171.538 62.282V61.796ZM166.318 58.754H168.676V62.516C168.676 66.566 168.136 72.236 162.376 75.746C161.998 75.224 161.134 74.36 160.576 73.964C165.832 70.886 166.318 65.972 166.318 62.498V58.754ZM162.844 64.964L164.842 65.792C164.212 67.412 163.312 69.446 162.394 70.832L160.342 69.698C161.314 68.438 162.286 66.584 162.844 64.964ZM173.644 65.45L175.624 64.748C176.362 66.512 177.244 68.87 177.622 70.328L175.48 71.174C175.174 69.698 174.364 67.286 173.644 65.45ZM185.2 65.288L187.792 65.918C186.604 68.744 185.002 71.912 183.67 73.982L181.672 73.352C182.968 71.174 184.426 67.862 185.2 65.288ZM179.584 72.686C182.986 72.578 188.26 72.326 192.976 72.092L192.922 74.198C188.296 74.522 183.292 74.792 179.872 74.972L179.584 72.686ZM188.692 69.266L190.798 68.294C192.382 70.238 194.074 72.794 194.938 74.522L192.706 75.71C191.95 73.982 190.204 71.246 188.692 69.266ZM183.292 59.132L185.758 59.816C184.606 62.66 182.716 65.45 180.88 67.178C180.412 66.728 179.368 65.936 178.774 65.576C180.646 64.1 182.356 61.634 183.292 59.132ZM190.546 59.15C191.608 61.274 193.66 63.794 195.316 65.306C194.722 65.756 193.894 66.62 193.48 67.196C191.788 65.378 189.718 62.534 188.386 60.032L190.546 59.15ZM197.782 59.834H212.164V61.976H197.782V59.834ZM196.81 67.466H213.208V69.644H196.81V67.466ZM198.862 63.128L200.824 62.552C201.454 63.704 202.084 65.234 202.282 66.224L200.194 66.89C200.014 65.918 199.438 64.334 198.862 63.128ZM209.122 62.498L211.426 63.092C210.778 64.46 210.04 65.936 209.446 66.872L207.556 66.314C208.114 65.27 208.78 63.686 209.122 62.498ZM203.848 60.734H206.098V75.602H203.848V60.734ZM217.942 72.794H227.878V74.882H217.942V72.794ZM216.97 67.628H229.012V75.602H226.69V69.698H219.184V75.602H216.97V67.628ZM220.498 58.574L222.964 59.384C221.794 61.616 220.264 64.028 219.04 65.594L217.096 64.82C218.302 63.182 219.724 60.59 220.498 58.574ZM224.818 61.796L226.528 60.536C228.31 61.976 230.47 64.064 231.406 65.612L229.516 67.052C228.67 65.54 226.618 63.344 224.818 61.796ZM215.062 63.812C218.698 63.722 224.278 63.506 229.228 63.29L229.12 65.378C224.134 65.648 218.734 65.864 215.188 66.008L215.062 63.812Z"/>
<g clip-path="url(#clip1_304_42678)">
<path d="M32.668 47.154C31.216 47.154 29.8813 46.8167 28.664 46.142C27.4613 45.4673 26.5007 44.5287 25.782 43.326C25.078 42.1087 24.726 40.7447 24.726 39.234C24.726 37.7233 25.078 36.3667 25.782 35.164C26.5007 33.9613 27.4613 33.0227 28.664 32.348C29.8813 31.6733 31.216 31.336 32.668 31.336C34.12 31.336 35.4473 31.6733 36.65 32.348C37.8673 33.0227 38.8207 33.9613 39.51 35.164C40.214 36.3667 40.566 37.7233 40.566 39.234C40.566 40.7447 40.214 42.1087 39.51 43.326C38.806 44.5287 37.8527 45.4673 36.65 46.142C35.4473 46.8167 34.12 47.154 32.668 47.154ZM32.668 43.722C33.9 43.722 34.8827 43.3113 35.616 42.49C36.364 41.6687 36.738 40.5833 36.738 39.234C36.738 37.87 36.364 36.7847 35.616 35.978C34.8827 35.1567 33.9 34.746 32.668 34.746C31.4213 34.746 30.424 35.1493 29.676 35.956C28.9427 36.7627 28.576 37.8553 28.576 39.234C28.576 40.598 28.9427 41.6907 29.676 42.512C30.424 43.3187 31.4213 43.722 32.668 43.722ZM58.3229 34.592C59.8483 34.592 61.0583 35.054 61.9529 35.978C62.8623 36.902 63.3169 38.1853 63.3169 39.828V47H59.5769V40.334C59.5769 39.542 59.3643 38.9333 58.9389 38.508C58.5283 38.068 57.9563 37.848 57.2229 37.848C56.4896 37.848 55.9103 38.068 55.4849 38.508C55.0743 38.9333 54.8689 39.542 54.8689 40.334V47H51.1289V40.334C51.1289 39.542 50.9163 38.9333 50.4909 38.508C50.0803 38.068 49.5083 37.848 48.7749 37.848C48.0416 37.848 47.4623 38.068 47.0369 38.508C46.6263 38.9333 46.4209 39.542 46.4209 40.334V47H42.6589V34.724H46.4209V36.264C46.8023 35.7507 47.3009 35.3473 47.9169 35.054C48.5329 34.746 49.2296 34.592 50.0069 34.592C50.9309 34.592 51.7523 34.79 52.4709 35.186C53.2043 35.582 53.7763 36.1467 54.1869 36.88C54.6123 36.2053 55.1916 35.6553 55.9249 35.23C56.6583 34.8047 57.4576 34.592 58.3229 34.592ZM73.428 34.592C74.8653 34.592 76.0093 35.0613 76.86 36C77.7253 36.924 78.158 38.2 78.158 39.828V47H74.418V40.334C74.418 39.5127 74.2053 38.8747 73.78 38.42C73.3547 37.9653 72.7827 37.738 72.064 37.738C71.3453 37.738 70.7733 37.9653 70.348 38.42C69.9227 38.8747 69.71 39.5127 69.71 40.334V47H65.948V34.724H69.71V36.352C70.0913 35.8093 70.6047 35.384 71.25 35.076C71.8953 34.7533 72.6213 34.592 73.428 34.592ZM82.6642 33.448C82.0042 33.448 81.4615 33.2573 81.0362 32.876C80.6255 32.48 80.4202 31.996 80.4202 31.424C80.4202 30.8373 80.6255 30.3533 81.0362 29.972C81.4615 29.576 82.0042 29.378 82.6642 29.378C83.3095 29.378 83.8375 29.576 84.2482 29.972C84.6735 30.3533 84.8862 30.8373 84.8862 31.424C84.8862 31.996 84.6735 32.48 84.2482 32.876C83.8375 33.2573 83.3095 33.448 82.6642 33.448ZM84.5342 34.724V47H80.7722V34.724H84.5342ZM99.2266 47.154C97.7746 47.154 96.4399 46.8167 95.2226 46.142C94.0199 45.4673 93.0593 44.5287 92.3406 43.326C91.6366 42.1087 91.2846 40.7447 91.2846 39.234C91.2846 37.7233 91.6366 36.3667 92.3406 35.164C93.0593 33.9613 94.0199 33.0227 95.2226 32.348C96.4399 31.6733 97.7746 31.336 99.2266 31.336C100.679 31.336 102.006 31.6733 103.209 32.348C104.426 33.0227 105.379 33.9613 106.069 35.164C106.773 36.3667 107.125 37.7233 107.125 39.234C107.125 40.7447 106.773 42.1087 106.069 43.326C105.365 44.5287 104.411 45.4673 103.209 46.142C102.006 46.8167 100.679 47.154 99.2266 47.154ZM99.2266 43.722C100.459 43.722 101.441 43.3113 102.175 42.49C102.923 41.6687 103.297 40.5833 103.297 39.234C103.297 37.87 102.923 36.7847 102.175 35.978C101.441 35.1567 100.459 34.746 99.2266 34.746C97.9799 34.746 96.9826 35.1493 96.2346 35.956C95.5013 36.7627 95.1346 37.8553 95.1346 39.234C95.1346 40.598 95.5013 41.6907 96.2346 42.512C96.9826 43.3187 97.9799 43.722 99.2266 43.722ZM118.832 44.272H113.068L112.144 47H108.206L113.794 31.556H118.15L123.738 47H119.756L118.832 44.272ZM117.864 41.368L115.95 35.714L114.058 41.368H117.864Z"/>
</g>
</g>
<defs>
<clipPath id="clip0_304_42678">
<rect width="256" height="90"/>
</clipPath>
<clipPath id="clip1_304_42678">
<rect width="101" height="30" transform="translate(24 24)"/>
</clipPath>
</defs>
</svg>
