<?xml version="1.0" encoding="UTF-8"?>
<svg width="41px" height="46px" viewBox="0 0 41 46" version="1.1" xmlns="http://www.w3.org/2000/svg" xmlns:xlink="http://www.w3.org/1999/xlink">
    <title>导入</title>
    <g id="页面-1" stroke="none" stroke-width="1" fill="none" fill-rule="evenodd">
        <g id="列表-导入数据" transform="translate(-662.000000, -314.000000)" fill="#57A3FD" fill-rule="nonzero">
            <g id="编组-20" transform="translate(411.000000, 200.000000)">
                <g id="导入" transform="translate(251.000000, 114.000000)">
                    <path d="M28.0376544,3.76410323 L29.7766688,6.44368556 L13.239007,15.644894 L11.4999926,12.9647074 L28.0376544,3.76410323 Z M9.11219211,14.7380049 L12.3001824,14.7380049 L12.3001824,22.3302555 L9.11158406,20.5436659 L9.11219211,14.7380049 Z" id="形状"></path>
                    <path d="M0.00060804817,8.56257961 L21.8671937,19.2041768 L21.8671937,46 L0.00060804817,35.2816707 L0.00060804817,8.56257961 Z M2.27835205,12.0982991 L2.27835205,33.9010967 L19.5894497,42.3869442 L19.5894497,20.5841466 L2.277744,12.0982991 L2.27835205,12.0982991 Z" id="形状"></path>
                    <path d="M20.163446,0 L41,9.44953043 L21.7066692,19.2041768 L0,8.56257961 L20.163446,0 Z M20.1330436,2.44576083 L5.38912041,8.70758522 L21.69086,16.6992054 L35.8151834,9.55768043 L20.1336517,2.44636502 L20.1330436,2.44576083 Z" id="形状"></path>
                    <polygon id="路径" points="20.8207448 18.8332042 41 9.37884022 41 36.1746635 21.8671937 46"></polygon>
                </g>
            </g>
        </g>
    </g>
</svg>