<?xml version="1.0" standalone="no"?><!DOCTYPE svg PUBLIC "-//W3C//DTD SVG 1.1//EN" "http://www.w3.org/Graphics/SVG/1.1/DTD/svg11.dtd"><svg t="1704275466975" class="icon" viewBox="0 0 1024 1024" version="1.1" xmlns="http://www.w3.org/2000/svg" p-id="18052" xmlns:xlink="http://www.w3.org/1999/xlink" width="200" height="200"><path d="M156.04296875 512C156.04296875 315.39666228 315.41463934 156.04296875 512 156.04296875c196.60333772 0 355.95703125 159.37167059 355.95703125 355.95703125 0 196.58536066-159.37167059 355.95703125-355.95703125 355.95703125C315.41463934 867.95703125 156.04296875 708.58536066 156.04296875 512zM116.4921875 512c0 218.42817799 177.07963451 395.5078125 395.5078125 395.5078125 218.42817799 0 395.5078125-177.07963451 395.5078125-395.5078125C907.5078125 293.57182201 730.42817799 116.4921875 512 116.4921875 293.57182201 116.4921875 116.4921875 293.57182201 116.4921875 512z" p-id="18053"></path><path d="M684.657138 399.28027344c-12.51242884-12.78209332-32.75523786-12.78209332-45.50137628 0L458.10307201 585.20490022l-75.03861889-76.45885114c-12.27872003-12.76411549-32.75523786-12.76411549-45.05193571 0-12.27872003 12.78209332-12.27872003 33.4743429 0.46741839 46.0227274l95.29940498 97.85222871 1.58203124 1.85169573c12.72816058 12.54838451 32.75523786 12.54838451 45.48339844 0l203.79438892-208.68430384C697.38529858 432.75461634 697.38529858 412.29607634 684.657138 399.28027344z" p-id="18054"></path></svg>