<?xml version="1.0" encoding="UTF-8"?>
<svg width="40px" height="40px" viewBox="0 0 40 40" version="1.1" xmlns="http://www.w3.org/2000/svg" xmlns:xlink="http://www.w3.org/1999/xlink">
    <title>视图参数</title>
    <defs>
        <path d="M32.92,6 C33.517375,6 34,6.482625 34,7.08 L34,21.579 L33.9270413,21.5780794 L31.57,21.578 L31.57,15.18 L16.18,15.18 L16.18,30.57 L22.673134,30.5710367 C22.7571752,30.5757111 22.8418317,30.5780794 22.9270413,30.5780794 L33.9270413,30.5780794 C33.9516081,30.5780794 33.9761288,30.5778826 34.0006022,30.5774903 L34,31.92 C34,32.517375 33.517375,33 32.92,33 L8.08,33 C7.482625,33 7,32.517375 7,31.92 L7,7.08 C7,6.482625 7.482625,6 8.08,6 Z M14.02,8.43 L9.43,8.43 L9.43,30.57 L14.02,30.57 L14.02,8.43 Z M31.57,8.43 L16.18,8.43 L16.18,13.02 L31.57,13.02 L31.57,8.43 Z" id="path-1"></path>
    </defs>
    <g id="视图参数" stroke="none" stroke-width="1" fill="none" fill-rule="evenodd">
        <g id="视图布局面板">
            <rect id="矩形" fill="#000000" fill-rule="nonzero" opacity="0" x="0" y="0" width="40" height="40"></rect>
            <mask id="mask-2" fill="white">
                <use xlink:href="#path-1"></use>
            </mask>
            <use id="形状结合" fill="#666666" fill-rule="nonzero" xlink:href="#path-1"></use>
        </g>
        <g id="Param" transform="translate(19.000000, 23.000000)" fill="#666666" fill-rule="nonzero">
            <path d="M0,6 L0.833020638,6 L0.833020638,3.86756757 L1.3902439,3.86756757 C2.28517824,3.86756757 3,3.25135135 3,1.88108108 C3,0.462162162 2.29080675,0 1.36772983,0 L0,0 L0,6 Z M0.833020638,2.91891892 L0.833020638,0.948648649 L1.30581614,0.948648649 C1.87992495,0.948648649 2.18386492,1.18378378 2.18386492,1.88108108 C2.18386492,2.57027027 1.90806754,2.91891892 1.33395872,2.91891892 L0.833020638,2.91891892 Z" id="形状"></path>
            <path d="M3.70788913,6 C3.98081023,6 4.2196162,5.72789116 4.42857143,5.3707483 L4.44136461,5.3707483 L4.48827292,5.88095238 L5,5.88095238 L5,3.10034014 C5,1.72278912 4.68869936,1 4.08315565,1 C3.70788913,1 3.36673774,1.28061224 3.08528785,1.6292517 L3.31130064,2.45408163 C3.53304904,2.19897959 3.74626866,2.00340136 3.96801706,2.00340136 C4.26226013,2.00340136 4.36460554,2.36054422 4.37313433,2.82823129 C3.41364606,3.03231293 3,3.56802721 3,4.58843537 C3,5.3962585 3.28144989,6 3.70788913,6 Z M3.91257996,5.02210884 C3.72921109,5.02210884 3.59701493,4.86054422 3.59701493,4.48639456 C3.59701493,4.06122449 3.79317697,3.74659864 4.37313433,3.59353741 L4.37313433,4.55442177 C4.2238806,4.85204082 4.09168443,5.02210884 3.91257996,5.02210884 Z" id="形状"></path>
            <path d="M6,6 L6.81337047,6 L6.81337047,3.09059233 C6.99164345,2.38501742 7.28690808,2.13240418 7.53203343,2.13240418 C7.66016713,2.13240418 7.74930362,2.15853659 7.8551532,2.21080139 L8,1.10452962 C7.90529248,1.04355401 7.80501393,1 7.63231198,1 C7.3091922,1 6.97493036,1.34843206 6.74651811,1.98432056 L6.72423398,1.98432056 L6.66852368,1.12195122 L6,1.12195122 L6,6 Z" id="路径"></path>
            <path d="M8.70788913,6 C8.98081023,6 9.2196162,5.72789116 9.42857143,5.3707483 L9.44136461,5.3707483 L9.48827292,5.88095238 L10,5.88095238 L10,3.10034014 C10,1.72278912 9.68869936,1 9.08315565,1 C8.70788913,1 8.36673774,1.28061224 8.08528785,1.6292517 L8.31130064,2.45408163 C8.53304904,2.19897959 8.74626866,2.00340136 8.96801706,2.00340136 C9.26226013,2.00340136 9.36460554,2.36054422 9.37313433,2.82823129 C8.41364606,3.03231293 8,3.56802721 8,4.58843537 C8,5.3962585 8.28144989,6 8.70788913,6 Z M8.91257996,5.02210884 C8.72921109,5.02210884 8.59701493,4.86054422 8.59701493,4.48639456 C8.59701493,4.06122449 8.79317697,3.74659864 9.37313433,3.59353741 L9.37313433,4.55442177 C9.2238806,4.85204082 9.09168443,5.02210884 8.91257996,5.02210884 Z" id="形状"></path>
            <path d="M11,6 L11.7192118,6 L11.7192118,2.64634146 C11.9162562,2.2804878 12.0935961,2.09756098 12.2512315,2.09756098 C12.5123153,2.09756098 12.635468,2.36759582 12.635468,3.11672474 L12.635468,6 L13.3596059,6 L13.3596059,2.64634146 C13.5566502,2.2804878 13.7339901,2.09756098 13.8916256,2.09756098 C14.1527094,2.09756098 14.2758621,2.36759582 14.2758621,3.11672474 L14.2758621,6 L15,6 L15,2.95993031 C15,1.73170732 14.729064,1 14.1428571,1 C13.7832512,1 13.5172414,1.38327526 13.2660099,1.85365854 C13.1330049,1.31358885 12.9014778,1 12.5073892,1 C12.1477833,1 11.8916256,1.34843206 11.6600985,1.77526132 L11.6403941,1.77526132 L11.591133,1.12195122 L11,1.12195122 L11,6 Z" id="路径"></path>
        </g>
    </g>
</svg>