<?xml version="1.0" encoding="UTF-8"?>
<svg width="40px" height="40px" viewBox="0 0 40 40" version="1.1" xmlns="http://www.w3.org/2000/svg" xmlns:xlink="http://www.w3.org/1999/xlink">
    <title>视图上下文</title>
    <g id="视图上下文" stroke="none" stroke-width="1" fill="none" fill-rule="evenodd">
        <g id="视图布局面板" fill="#000000" fill-rule="nonzero" opacity="0">
            <rect id="矩形" x="0" y="0" width="40" height="40"></rect>
        </g>
        <g id="CTX" transform="translate(20.500000, 20.500000) rotate(-360.000000) translate(-20.500000, -20.500000) translate(8.000000, 15.000000)" fill="#FAAD14" fill-rule="nonzero">
            <path d="M4.70310766,11 C6.03496115,11 7.13096559,10.4557292 7.9772475,9.43880208 L6.89511654,8.12109375 C6.34017758,8.73697917 5.64650388,9.16666667 4.77247503,9.16666667 C3.14927858,9.16666667 2.09489456,7.77734375 2.09489456,5.47135417 C2.09489456,3.19401042 3.26026637,1.81901042 4.81409545,1.81901042 C5.59100999,1.81901042 6.18756937,2.19140625 6.7008879,2.70703125 L7.78301887,1.36067708 C7.11709212,0.64453125 6.07658158,0 4.77247503,0 C2.17813541,0 0,2.04817708 0,5.54296875 C0,9.08072917 2.10876804,11 4.70310766,11 Z" id="路径"></path>
            <polygon id="路径" points="11.445616 10.7994792 13.4988901 10.7994792 13.4988901 1.96223958 16.4123196 1.96223958 16.4123196 0.200520833 8.55993341 0.200520833 8.55993341 1.96223958 11.445616 1.96223958"></polygon>
            <path d="M16.6897891,10.7994792 L18.8679245,10.7994792 L19.963929,8.45052083 C20.2136515,7.90625 20.4495006,7.34765625 20.7130966,6.703125 L20.7685905,6.703125 C21.0738069,7.34765625 21.3096559,7.90625 21.5732519,8.45052083 L22.7247503,10.7994792 L25,10.7994792 L22.1143174,5.42838542 L24.8196448,0.200520833 L22.6553829,0.200520833 L21.6842397,2.37760417 C21.4622642,2.87890625 21.254162,3.39453125 21.0044395,4.05338542 L20.9350721,4.05338542 C20.6298557,3.39453125 20.4078801,2.87890625 20.1720311,2.37760417 L19.145394,0.200520833 L16.8701443,0.200520833 L19.5754717,5.328125 L16.6897891,10.7994792 Z" id="路径"></path>
        </g>
    </g>
</svg>