<?xml version="1.0" standalone="no"?><!DOCTYPE svg PUBLIC "-//W3C//DTD SVG 1.1//EN" "http://www.w3.org/Graphics/SVG/1.1/DTD/svg11.dtd"><svg t="1697624268226" class="icon" viewBox="0 0 1024 1024" version="1.1" xmlns="http://www.w3.org/2000/svg" p-id="846" xmlns:xlink="http://www.w3.org/1999/xlink"><path d="M969.80536889 695.93770667h-591.28035556c-28.61738667 0-51.84625778-25.04931555-51.84625778-55.63278222 0-30.58346667 23.22887111-55.63278222 51.84625778-55.63278223h591.28035556c28.69020445 0 51.91907555 25.04931555 51.91907556 55.63278223 0 30.58346667-23.30168889 55.63278222-51.91907556 55.63278222z m0-259.52256h-591.28035556c-28.61738667 0-51.84625778-24.97649778-51.84625778-55.63278222 0-30.58346667 23.22887111-55.63278222 51.84625778-55.63278223h591.28035556c28.69020445 0 51.91907555 25.04931555 51.91907556 55.63278223 0 30.58346667-23.30168889 55.63278222-51.91907556 55.63278222z m-3.71370667-250.20188445H60.67541333c-30.58346667 0-57.52604445-23.15605333-58.39985778-53.66670222A55.63278222 55.63278222 0 0 1 57.90833778 75.09333333h905.41624889c30.58346667 0 57.52604445 23.22887111 58.39985778 53.66670222a55.63278222 55.63278222 0 0 1-55.63278223 57.52604445z m-705.16736 508.85063111V326.16903111L2.27555555 510.61646222l258.64874667 184.44743111c0 0.87381333 0 0.87381333 0 0z m-203.01596444 139.88295112h905.41624889c30.58346667 0 57.52604445 23.30168889 58.39985778 53.73952a55.63278222 55.63278222 0 0 1-55.63278223 57.45322666H60.67541333c-30.58346667 0-57.52604445-23.22887111-58.39985778-53.73952a55.63278222 55.63278222 0 0 1 55.63278223-57.45322666z" p-id="847"></path></svg>