<?xml version="1.0" standalone="no"?><!DOCTYPE svg PUBLIC "-//W3C//DTD SVG 1.1//EN" "http://www.w3.org/Graphics/SVG/1.1/DTD/svg11.dtd"><svg t="1707097272153" class="icon" viewBox="0 0 1036 1024" version="1.1" xmlns="http://www.w3.org/2000/svg" p-id="9155" xmlns:xlink="http://www.w3.org/1999/xlink" width="202.34375" height="200"><path d="M521.981377 921.096275h-54.690091l-14.392129-2.878425c-8.635278 0-17.270555-2.878426-25.860858-2.878426-69.082221-11.513703-120.893886-46.099789-158.313422-100.744905-40.297962-63.325369-83.47435-123.772312-123.772312-187.097681-5.756852-8.635278-8.635278-17.270555-11.513703-25.860858-5.756852-20.148981-2.878426-43.176388 8.635277-60.446943s28.784259-28.784259 48.93324-34.54111c31.662684-5.756852 60.446943 5.756852 77.717498 28.784259 2.878426 2.878426 2.878426 5.756852 5.756852 5.756851v-287.842586c2.878426-37.419536 40.297962-66.203795 74.839072-60.446943 37.419536 5.756852 60.446943 31.662684 60.446943 69.082221v135.24104c2.878426-2.878426 8.635278-2.878426 11.513704-5.756852l8.635277-5.756852h31.662685l5.756851 2.878426c20.148981 5.756852 31.662684 20.148981 40.297962 37.419536 17.270555-14.392129 43.176388-17.270555 63.325369-11.513703 17.270555 5.756852 31.662684 20.148981 40.297962 37.419536 14.392129-11.513703 37.419536-17.270555 57.568518-14.392129 31.662684 5.756852 51.811665 34.54111 51.811665 69.082221v189.931131c0 17.270555-2.878426 34.54111-5.756852 54.690091-14.437105 83.519325-77.762474 146.844694-161.236823 161.191848z m-46.099789-57.568517h43.176388l31.662685-5.756851c60.446943-11.513703 103.623331-54.690091 112.258608-112.258609 2.923401-14.392129 2.923401-28.739283 2.923401-43.176388v-190.021082c0-8.635278-2.878426-11.513703-8.635277-14.392129-5.756852 0-8.635278 2.878426-11.513704 5.756851 0 2.878426-2.878426 5.756852-2.878425 8.635278V529.585383c0 2.878426 0 8.635278-2.878426 11.513703-5.756852 17.270555-20.148981 28.784259-37.419537 28.784259h-8.635277a42.895292 42.895292 0 0 1-34.54111-34.54111v-46.099789a15.831342 15.831342 0 0 0-8.635278-14.39213c-2.878426 0-8.635278 0-11.513703 2.878426 0 0-2.878426 2.878426-2.878426 8.635278v17.270555c0 23.027407-17.270555 40.297962-37.419537 40.297962h-2.83345c-20.148981 0-37.419536-14.392129-40.297962-37.419536v-46.099789c0-8.635278-2.878426-11.513703-8.635278-14.39213h-2.878425c-2.878426 0-2.878426 0-5.756852 2.878426-2.878426 0-2.878426 2.878426-2.878426 11.513704v37.554462c0 5.756852 0 14.392129-2.878426 20.148981-5.756852 14.392129-20.148981 25.860857-37.419536 25.860857h-2.923401c-17.270555 0-31.662684-11.513703-37.419537-28.784258-2.83345-5.711876-2.83345-11.468728-2.83345-17.22558v-230.274069c0-8.635278-2.878426-11.513703-11.513703-11.513703-5.756852 0-8.635278 5.756852-8.635278 8.635277v391.465917l-17.270555 2.878426-20.193957 11.513704-37.419536-51.811666c-11.513703-14.392129-23.027407-31.662684-34.54111-46.099789-8.635278-11.513703-14.392129-11.513703-23.027407-8.635278-5.756852 0-8.635278 5.756852-11.513703 5.756852-2.878426 5.756852-2.878426 8.635278-2.878426 14.392129 0 2.878426 2.878426 8.635278 2.878426 8.635278 40.297962 63.370344 80.595924 123.862263 123.772312 187.142656 28.784259 43.176388 69.082221 66.203795 120.893886 77.717499 8.635278 0 14.392129 2.878426 23.027407 2.878425z m0 0" p-id="9156"></path><path d="M150.664441 489.332396H102.450808a89.950808 89.950808 0 0 1-89.950808-89.950808V89.950808A89.950808 89.950808 0 0 1 102.450808 0h741.194659a89.950808 89.950808 0 0 1 89.950808 89.950808v306.552354a89.950808 89.950808 0 0 1-89.950808 89.950808h-53.970485a28.784259 28.784259 0 0 1-28.784258-28.784258 28.784259 28.784259 0 0 1 28.784258-28.784259H831.052354a44.975404 44.975404 0 0 0 44.975404-44.975404V102.543921a44.975404 44.975404 0 0 0-44.975404-44.975404H115.043921a44.975404 44.975404 0 0 0-44.975404 44.975404V386.788475a44.975404 44.975404 0 0 0 44.975404 44.975404h35.62052a28.784259 28.784259 0 0 1 28.784259 28.784259 28.784259 28.784259 0 0 1-28.784259 28.784258z m28.784259 0" p-id="9157"></path></svg>