<?xml version="1.0" standalone="no"?><!DOCTYPE svg PUBLIC "-//W3C//DTD SVG 1.1//EN" "http://www.w3.org/Graphics/SVG/1.1/DTD/svg11.dtd"><svg t="1704273603367" class="icon" viewBox="0 0 1024 1024" version="1.1" xmlns="http://www.w3.org/2000/svg" p-id="4575" xmlns:xlink="http://www.w3.org/1999/xlink" width="200" height="200"><path d="M883.278513 148.539035l-43.016723 0 0-12.780071c0-38.310537-31.199583-69.632917-69.323878-69.632917l-1.02433 0c-38.129412 0-69.323878 31.321356-69.323878 69.632917l0 12.780071L317.20292 148.539035l0-12.780071c0-38.310537-31.195489-69.632917-69.323878-69.632917l-1.055029 0c-38.127366 0-69.322855 31.321356-69.322855 69.632917l0 12.780071-42.924625 0c-38.127366 0-69.323878 31.351032-69.323878 69.609381l0 665.701614c0 38.309514 31.195489 69.632917 69.323878 69.632917l748.70198 0c38.127366 0 69.322855-31.323403 69.322855-69.632917l0-665.701614C952.601368 179.890067 921.405879 148.539035 883.278513 148.539035L883.278513 148.539035zM728.318232 135.758963c0-23.024389 18.632359-41.777499 41.594327-41.777499l1.02433 0c22.931269 0 41.593304 18.753109 41.593304 41.777499L812.530193 259.615852c0 23.024389-18.662035 41.778522-41.593304 41.778522l-1.02433 0c-22.961968 0-41.594327-18.754133-41.594327-41.778522L728.318232 135.758963 728.318232 135.758963zM205.23071 135.758963c0-23.024389 18.632359-41.777499 41.599444-41.777499l1.048889 0c22.903639 0 41.594327 18.753109 41.594327 41.777499L289.473369 259.615852c0 23.024389-18.691711 41.778522-41.594327 41.778522l-1.048889 0c-22.967084 0-41.599444-18.754133-41.599444-41.778522L205.23071 135.758963 205.23071 135.758963zM883.278513 897.807926l-748.70198 0c-7.519254 0-13.864776-6.468318-13.864776-13.957897L120.711757 394.394489l776.433578 0 0 489.455541C897.144312 891.338584 890.797767 897.807926 883.278513 897.807926L883.278513 897.807926zM222.614635 494.083955l127.918391 0 0 62.950727L222.614635 557.034682 222.614635 494.083955 222.614635 494.083955zM445.963493 494.083955l126.906342 0 0 62.950727L445.963493 557.034682 445.963493 494.083955 445.963493 494.083955zM668.299277 494.083955l124.873032 0 0 62.950727L668.299277 557.034682 668.299277 494.083955 668.299277 494.083955zM222.614635 622.00951l127.918391 0 0 61.927421L222.614635 683.936931 222.614635 622.00951 222.614635 622.00951zM445.963493 622.00951l126.906342 0 0 61.927421L445.963493 683.936931 445.963493 622.00951 445.963493 622.00951zM668.299277 622.00951l124.873032 0 0 61.927421L668.299277 683.936931 668.299277 622.00951 668.299277 622.00951zM222.614635 746.884588l127.918391 0 0 64.97278L222.614635 811.857369 222.614635 746.884588 222.614635 746.884588zM445.963493 746.884588l126.906342 0 0 64.97278L445.963493 811.857369 445.963493 746.884588 445.963493 746.884588zM668.299277 746.884588l124.873032 0 0 64.97278L668.299277 811.857369 668.299277 746.884588 668.299277 746.884588zM668.299277 746.884588" p-id="4576"></path></svg>