<?xml version="1.0" standalone="no"?><!DOCTYPE svg PUBLIC "-//W3C//DTD SVG 1.1//EN" "http://www.w3.org/Graphics/SVG/1.1/DTD/svg11.dtd"><svg t="1675680961421" class="icon" viewBox="0 0 1024 1024" version="1.1" xmlns="http://www.w3.org/2000/svg" xmlns:xlink="http://www.w3.org/1999/xlink"><path d="M384 832v-64h96V256H384V192h256v64H544v512H640v64H384z m480-512c48.832 0 90.752 32.64 95.552 76.864l0.448 8.448v213.376c0 45.696-39.04 80.96-86.912 84.928L864 704h-223.104v-64H864c16.768 0 28.992-8.64 31.552-17.92L896 618.752V405.312c0-9.216-10.432-18.88-25.92-20.928L864 384h-222.528V320H864zM384.32 320v64H160c-16.768 0-28.992 8.64-31.552 17.92L128 405.248v213.376c0 9.216 10.432 18.88 25.92 20.928L160 640h224.576v64H160c-48.832 0-90.752-32.64-95.552-76.864L64 618.688V405.312c0-45.696 39.04-80.96 86.912-84.928L160 320h224.32z"></path></svg>