<?xml version="1.0" standalone="no"?><!DOCTYPE svg PUBLIC "-//W3C//DTD SVG 1.1//EN" "http://www.w3.org/Graphics/SVG/1.1/DTD/svg11.dtd"><svg t="1704272732462" class="icon" viewBox="0 0 1024 1024" version="1.1" xmlns="http://www.w3.org/2000/svg" p-id="3650" xmlns:xlink="http://www.w3.org/1999/xlink" width="200" height="200"><path d="M768 160 256 160C204.8 160 160 204.8 160 256l0 512c0 51.2 44.8 96 96 96l512 0c51.2 0 96-44.8 96-96L864 256C864 204.8 819.2 160 768 160zM800 768c0 19.2-12.8 32-32 32L256 800c-19.2 0-32-12.8-32-32L224 256c0-19.2 12.8-32 32-32l512 0c19.2 0 32 12.8 32 32L800 768zM448 672c-6.4 0-19.2 0-25.6-6.4l-128-128c-12.8-12.8-12.8-32 0-44.8s32-12.8 44.8 0L448 595.2l230.4-230.4c12.8-12.8 32-12.8 44.8 0s12.8 32 0 44.8l-256 256C467.2 672 454.4 672 448 672z" p-id="3651"></path></svg>