<?xml version="1.0" encoding="UTF-8"?>
<svg width="40px" height="40px" viewBox="0 0 40 40" version="1.1" xmlns="http://www.w3.org/2000/svg" xmlns:xlink="http://www.w3.org/1999/xlink">
    <title>logo</title>
    <g id="页面-1" stroke="none" stroke-width="1" fill="none" fill-rule="evenodd">
        <g id="应用首页视图-标注图" transform="translate(-198, -139)" fill="#0CC4FF" fill-rule="nonzero">
            <g id="表头" transform="translate(170, 120)">
                <g id="logo" transform="translate(28, 19)">
                    <path d="M22,35.9898862 C26.2154828,35.9898862 30.4410748,35.9898862 34.6666667,36 C32.4325619,33.3097345 30.1782389,30.6498103 27.9036978,28 C25.9930833,30.7003793 24.0319234,33.3704172 22,35.9898862 L22,35.9898862 Z M30,24.8359402 C32.2890295,27.6180049 34.5147679,30.4504693 36.6666667,33.3333333 C36.6350211,26.8922489 36.6666667,20.4410845 36.6455696,14 C34.6202531,17.7094195 32.4683544,21.3684393 30,24.8359402 L30,24.8359402 Z M14,14 C14.1914074,20.9181555 17.0524445,27.332993 20.3265185,33.3333333 C22.0391111,30.5305428 23.6811852,27.6981453 25.3333333,24.8558788 C21.6361481,21.1550111 18.0094815,17.3751914 14,14 L14,14 Z M2.83184154,5.33333333 C2.66165182,15.5058366 2.53400953,25.6882836 2.91693639,35.8508431 C7.937533,36.0596628 12.9687665,35.9801124 18,36 C11.2987799,26.6230004 4.94857613,16.5897103 2.83184154,5.33333333 L2.83184154,5.33333333 Z M8.66666667,3.33333333 C15.0783794,8.7627024 21.1467879,14.5404801 26.8315032,20.6666667 C29.7798813,14.956635 32.5768017,9.1788572 35.3333333,3.38172343 C26.4478101,3.36236739 17.562287,3.43011353 8.66666667,3.33333333 L8.66666667,3.33333333 Z M0,0 L39.8221031,0 C40.0425021,13.33 40.0825747,26.67 39.8020668,40 L0,40 L0,0 Z" id="Fill-1"></path>
                </g>
            </g>
        </g>
    </g>
</svg>
